# xmcd CD database file
#
# Track frame offsets:
#	150
#	12415
#	27250
#	43367
#	57495
#	70922
#	85208
#	101133
#	114496
#	132691
#	150045
#	167341
#	183845
#	201184
#	216967
#	232426
#	248563
#	265090
#
# Disc length: 3719 seconds
#
# Revision: 0
# Processed by: cddbd v1.4PL0 Copyright (c) Steve Scherf et al.
# Submitted via: CDex 1.40Beta9
#
DISCID=000e8512
DTITLE=Gian e Giovani and Cezar e Paulinho - Dose Dupla
DYEAR=1900
DGENRE=Country
TTITLE0=Espuma de cerveja
TTITLE1=Morto de saudade sua
TTITLE2=Roupa de lua de mel
TTITLE3=Você é tudo que pedi pra Deus
TTITLE4=A noite do nosso amor
TTITLE5=Amante anônimo
TTITLE6=Você marcou pra mim
TTITLE7=Eu quero te amar
TTITLE8=Cuida de mim Deus
TTITLE9=Olha amor
TTITLE10=Mais você do que eu
TTITLE11=Nem dormindo eu consigo te esquecer
TTITLE12=O feijão e a flor
TTITLE13=Por que será
TTITLE14=Meu coração só quer você
TTITLE15=Duas vezes você
TTITLE16=Sai dessa coração
TTITLE17=Noite maravilhosa
EXTD=ID3G: 2
EXTT0=
EXTT1=
EXTT2=
EXTT3=
EXTT4=
EXTT5=
EXTT6=
EXTT7=
EXTT8=
EXTT9=
EXTT10=
EXTT11=
EXTT12=
EXTT13=
EXTT14=
EXTT15=
EXTT16=
EXTT17=
PLAYORDER=
